Coordinates
version=1
nRows=5
nColumns=40
inDegrees=yes

Units are S.I. units (second, meters, Newtons, ...)
If the header above contains a line with 'inDegrees', this indicates whether rotational values are in degrees (yes) or radians (no).

endheader
time	pelvis_tilt	pelvis_list	pelvis_rotation	pelvis_tx	pelvis_ty	pelvis_tz	hip_flexion_r	hip_adduction_r	hip_rotation_r	knee_angle_r	knee_angle_r_beta	ankle_angle_r	subtalar_angle_r	mtp_angle_r	hip_flexion_l	hip_adduction_l	hip_rotation_l	knee_angle_l	knee_angle_l_beta	ankle_angle_l	subtalar_angle_l	mtp_angle_l	lumbar_extension	lumbar_bending	lumbar_rotation	arm_flex_r	arm_add_r	arm_rot_r	elbow_flex_r	pro_sup_r	wrist_flex_r	wrist_dev_r	arm_flex_l	arm_add_l	arm_rot_l	elbow_flex_l	pro_sup_l	wrist_flex_l	wrist_dev_l
      7.05000000	    -39.44636812	     -3.50770139	      2.24500543	     -0.40500469	      0.67659155	     -0.73803999	     93.01337941	     -1.68040095	    -13.43728499	     94.34515366	      1.64663356	     26.49229448	      0.00000000	      0.00000000	     38.36862355	    -12.30211474	      7.74329843	     88.19072346	      1.53921849	    -15.77943775	      0.00000000	      0.00000000	      4.21874376	      7.97980629	     -4.24695657	     89.97201643	     -0.33366715	      7.09041254	     59.13529551	     65.41447285	      0.00000000	      0.00000000	     89.95682783	     -7.71219023	      2.55061298	     55.29955361	     74.81437895	      0.00000000	      0.00000000
      7.05500000	    -39.55127884	     -3.38660776	      2.21683936	     -0.40517874	      0.67596281	     -0.73832046	     93.20307947	     -1.66700025	    -13.27457971	     94.44342970	      1.64834881	     26.52292153	      0.00000000	      0.00000000	     38.41793013	    -12.20409624	      7.63314887	     88.19916288	      1.53936579	    -15.71964847	      0.00000000	      0.00000000	      4.28668323	      7.86298665	     -4.24806185	     89.97203392	     -0.30991518	      7.24944764	     59.26514848	     62.94001367	      0.00000000	      0.00000000	     89.95693075	     -7.71569811	      2.83782837	     55.44686484	     71.25434432	      0.00000000	      0.00000000
      7.06000000	    -39.53754334	     -3.45734970	      2.19034542	     -0.40520648	      0.67551953	     -0.73846559	     93.24563626	     -1.65630449	    -13.32331687	     94.44557563	      1.64838626	     26.67267257	      0.00000000	      0.00000000	     38.44712636	    -12.22893191	      7.72246422	     88.25130382	      1.54027582	    -15.92029727	      0.00000000	      0.00000000	      4.23237996	      7.94780593	     -4.25309787	     89.97212552	     -0.33880698	      7.05890223	     59.20179633	     65.31498986	      0.00000000	      0.00000000	     89.95703941	     -7.67583336	      2.48493413	     55.36460897	     74.68391446	      0.00000000	      0.00000000
      7.06500000	    -39.55371773	     -3.44151405	      2.16111122	     -0.40523343	      0.67500712	     -0.73863743	     93.31262695	     -1.58932848	    -13.25916628	     94.59956062	      1.65107380	     26.49365825	      0.00000000	      0.00000000	     38.41772312	    -12.19762959	      7.72874057	     88.26871048	      1.54057962	    -15.77007347	      0.00000000	      0.00000000	      4.21076333	      7.93245518	     -4.25653122	     89.97218621	     -0.34658768	      7.20763150	     59.30284569	     62.83492546	      0.00000000	      0.00000000	     89.95719351	     -7.67213374	      2.75937464	     55.47871153	     71.12733855	      0.00000000	      0.00000000
      7.07000000	    -39.60738111	     -3.52548391	      2.13666750	     -0.40524982	      0.67449907	     -0.73880028	     93.40146107	     -1.55050084	    -13.31021892	     94.65334266	      1.65201248	     26.51165365	      0.00000000	      0.00000000	     38.50151662	    -12.27832500	      7.78178772	     88.29039073	      1.54095802	    -15.99017393	      0.00000000	      0.00000000	      4.22280175	      8.04716213	     -4.31870899	     89.97221946	     -0.29397822	      6.95680218	     59.27028171	     65.46752120	      0.00000000	      0.00000000	     89.95715703	     -7.73402004	      2.41856595	     55.50566418	     74.75932871	      0.00000000	      0.00000000
